<svg xmlns="http://www.w3.org/2000/svg" xmlns:xlink="http://www.w3.org/1999/xlink" id="Layer_1" x="0px" y="0px" viewBox="0 0 100 100" style="enable-background:new 0 0 100 100;" xml:space="preserve"><style type="text/css">	.st0{fill:#A90533;}</style><path class="st0" d="M50.09,26.94c-1.57,0-3.1,0.16-4.58,0.46c0.17,0.88,0.29,1.96,0.21,3.08c-0.26,3.97-1.27,5.43-1.27,5.43 l-5.69,1.6c0,0,0.81-1.48,0.14-3.78c-0.47-1.61-1.47-2.41-1.93-2.7c-6.03,4.17-9.99,11.13-9.99,19.02 c0,12.76,10.35,23.11,23.11,23.11c12.76,0,23.11-10.35,23.11-23.11C73.2,37.28,62.85,26.94,50.09,26.94z M54.44,47.63h9.26 c0.22,0.73,0.38,1.48,0.49,2.25h-8.97C55.04,49.1,54.76,48.34,54.44,47.63z M61.26,42.97c1.09,1.39,1.81,2.76,2.3,4.18h-9.34 c-1.18-2.42-2.75-4.18-2.75-4.18S61.25,42.95,61.26,42.97z M59.58,68.02l-0.26,2.16c0,0-2.63,0.28-2.49-1.88c0,0-0.08,0-0.25,0 c-0.1,0-0.2,0-0.3,0c-0.12,0-0.26,0-0.42,0v0c-1.22,0-12.14,0-12.14,0c-0.39,2.16-2.95,1.88-2.95,1.88l0.26-2.16l0.05-0.42h14.86 h3.29h0.39L59.58,68.02z M63.13,57.5c-0.55,1.37-1.77,3.26-3.39,4.78c-1.35,1.27-3.03,2.32-4.76,2.93 c-3.12,1.13-6.14,1.14-9.25,0.21c-1.12-0.33-3.24-1.18-5.25-3.01c-1.45-1.32-2.49-2.67-3.34-4.47c-1.59-3.37-1.76-7.17-0.73-10.38 c0.73-2.29,1.94-4.21,3.19-5.49c1.48-1.53,11.16-11.19,11.16-11.19l5.81,6.66c0,0-8.74,8.79-10.38,10.41 c-1.31,1.29-2.09,3.48-1.25,5.81c1.38,3.51,5.44,4.42,8.17,2.57c1.66-1.13,2.5-2.99,2.37-4.9c-0.03-0.36-0.08-0.71-0.15-1.06h8.92 C64.47,52.55,64.18,55.16,63.13,57.5z"></path></svg>